<svg xmlns="http://www.w3.org/2000/svg" viewBox="0 0 1511.69 592.94"><defs><style>.cls-1{fill:#efbd40;}.cls-2{fill:#272f4e;}</style></defs><g id="Слой_2" data-name="Слой 2"><g id="LOGO_FIN" data-name="LOGO FIN"><polygon class="cls-1" points="333.82 592.94 104.5 592.94 104.5 325.87 0 325.87 333.82 0 333.82 592.94"/><polygon class="cls-2" points="333.83 592.94 563.14 592.94 563.14 325.87 667.65 325.87 333.82 0 333.83 592.94"/><line class="cls-2" x1="377.29" y1="370.27" x2="219.77" y2="216.51"/><polygon class="cls-2" points="333.83 369.18 197.87 236.55 240.73 194.53 333.82 285.33 333.83 369.18"/><line class="cls-1" x1="353.96" y1="308.11" x2="578.86" y2="88.57"/><polygon class="cls-1" points="333.83 369.69 333.82 285.84 557.9 67.1 599.82 110.04 333.83 369.69"/><path class="cls-2" d="M717.73,135.12h30v68.16h78V135.12h30V306.48h-30V229.2h-78v77.28h-30Z"/><path class="cls-2" d="M964.69,131q19.2,0,34.44,7.2a77.11,77.11,0,0,1,25.8,19.44,86.43,86.43,0,0,1,16.2,28.56,109.44,109.44,0,0,1,0,69.36,86.43,86.43,0,0,1-16.2,28.56,75.76,75.76,0,0,1-25.8,19.32q-15.24,7.06-34.44,7.08t-34.44-7.08a75.76,75.76,0,0,1-25.8-19.32,86.43,86.43,0,0,1-16.2-28.56,109.44,109.44,0,0,1,0-69.36,86.43,86.43,0,0,1,16.2-28.56,77.11,77.11,0,0,1,25.8-19.44Q945.49,131,964.69,131Zm0,24.48q-13.68,0-23.64,5.52a46.35,46.35,0,0,0-16.2,14.76,66.59,66.59,0,0,0-9.24,21,97.5,97.5,0,0,0,0,48,66.59,66.59,0,0,0,9.24,21,46.35,46.35,0,0,0,16.2,14.76q10,5.52,23.64,5.52t23.64-5.52a46.35,46.35,0,0,0,16.2-14.76,66.59,66.59,0,0,0,9.24-21,97.5,97.5,0,0,0,0-48,66.59,66.59,0,0,0-9.24-21A46.35,46.35,0,0,0,988.33,161Q978.37,155.52,964.69,155.52Z"/><path class="cls-2" d="M1073.65,135.12h42.24l47.28,134.16h.48l46.08-134.16h41.76V306.48h-28.56V174.24h-.48l-47.52,132.24h-24.72l-47.52-132.24h-.48V306.48h-28.56Z"/><path class="cls-2" d="M1287.49,135.12h123.36V161h-93.36v44.88h86.4V230.4h-86.4v50.16h95v25.92h-125Z"/><path class="cls-2" d="M721.38,353.58H860.1V379.5H805.62V524.94h-30V379.5H721.38Z"/><path class="cls-2" d="M880,353.58h81.84q28.32,0,42.49,12.24t14.16,34.08q0,12.24-3.61,20.28a44.25,44.25,0,0,1-8.39,13,33,33,0,0,1-9.49,7.08q-4.68,2.16-6.83,2.88v.48a30.82,30.82,0,0,1,8.28,2.4,24.5,24.5,0,0,1,8.27,6.12,33.16,33.16,0,0,1,6.36,10.92q2.52,6.72,2.52,16.8a152,152,0,0,0,2.28,27.48q2.28,12.36,7.08,17.64H992.81a28,28,0,0,1-4-12.24q-.6-6.72-.59-13a123.44,123.44,0,0,0-1.45-20.28,35.36,35.36,0,0,0-5.28-14.16A22.34,22.34,0,0,0,971.09,457q-6.6-2.64-16.91-2.64H910v70.56H880Zm30,78h49.21q14.38,0,21.83-6.84t7.45-20.52q0-8.16-2.41-13.32a19.46,19.46,0,0,0-6.59-8,24.3,24.3,0,0,0-9.61-3.84,63.57,63.57,0,0,0-11.16-1H910Z"/><path class="cls-2" d="M1094.81,353.58h31.92l66,171.36h-32.16l-16.08-45.36h-68.4L1060,524.94h-31Zm-10.56,103.2h52.32l-25.68-73.68h-.72Z"/><path class="cls-2" d="M1207.85,353.58h31.68l78.24,126.24h.48V353.58h28.56V524.94h-31.68l-78-126h-.72v126h-28.56Z"/><path class="cls-2" d="M1402,467.82q0,9.84,3.36,16.8a30.34,30.34,0,0,0,9.36,11.4,39.91,39.91,0,0,0,13.8,6.48,66.72,66.72,0,0,0,16.92,2,54.33,54.33,0,0,0,16.8-2.28,34,34,0,0,0,11.28-5.88,21.25,21.25,0,0,0,6.24-8.28,24.78,24.78,0,0,0,1.92-9.48q0-9.84-4.44-14.52a25.36,25.36,0,0,0-9.72-6.6,203.26,203.26,0,0,0-21.24-6.36q-12.12-3-29.88-7.8a64.06,64.06,0,0,1-18.36-7.56,43.8,43.8,0,0,1-11.64-10.44,36.66,36.66,0,0,1-6.12-12.24,49.09,49.09,0,0,1-1.8-13.2q0-13,5.4-22.44a48,48,0,0,1,14.28-15.72,62.7,62.7,0,0,1,20.16-9.24,88.35,88.35,0,0,1,22.8-3,89.66,89.66,0,0,1,25.32,3.48,62.44,62.44,0,0,1,20.88,10.44,51.14,51.14,0,0,1,14.28,17.16q5.28,10.2,5.28,23.64h-30q-1.2-16.56-11.28-23.4T1439.93,374a56.17,56.17,0,0,0-10.8,1.08,34.31,34.31,0,0,0-10.08,3.6,22.12,22.12,0,0,0-7.56,6.84,18.49,18.49,0,0,0-3,10.8q0,9.12,5.64,14.28a36.39,36.39,0,0,0,14.76,7.8q1,.24,7.56,2t14.76,4l16,4.2q7.8,2,11.16,3a50.13,50.13,0,0,1,14.64,7.2,46.16,46.16,0,0,1,10.44,10.44,43.11,43.11,0,0,1,6.24,12.6,46.06,46.06,0,0,1,2,13.44q0,14.4-5.88,24.6a50,50,0,0,1-15.48,16.68,67.29,67.29,0,0,1-21.84,9.48,105,105,0,0,1-25,3,102.71,102.71,0,0,1-27.6-3.6,64.6,64.6,0,0,1-22.56-11A54,54,0,0,1,1378,495.3q-5.76-11.64-6-27.48Z"/></g></g></svg>